<?xml version="1.0" encoding="UTF-8"?>
<svg xmlns="http://www.w3.org/2000/svg" xmlns:xlink="http://www.w3.org/1999/xlink" width="504.1pt" height="298pt" viewBox="0 0 504.1 298" version="1.1">
<defs>
<clipPath id="clip1">
  <path d="M 0 198 L 504.101563 198 L 504.101563 298 L 0 298 Z M 0 198 "/>
</clipPath>
<clipPath id="clip2">
  <path d="M 0 0 L 504.101563 0 L 504.101563 100 L 0 100 Z M 0 0 "/>
</clipPath>
</defs>
<g id="surface1">
<g clip-path="url(#clip1)" clip-rule="nonzero">
<path style=" stroke:none;fill-rule:evenodd;fill:rgb(2.745056%,56.443787%,25.87738%);fill-opacity:1;" d="M 0.136719 297.855469 L 504.136719 297.855469 L 504.136719 198.582031 L 0.136719 198.582031 Z M 0.136719 297.855469 "/>
</g>
<g clip-path="url(#clip2)" clip-rule="nonzero">
<path style=" stroke:none;fill-rule:evenodd;fill:rgb(94.139099%,48.631287%,0%);fill-opacity:1;" d="M 0.136719 99.308594 L 504.136719 99.308594 L 504.136719 0.0351563 L 0.136719 0.0351563 Z M 0.136719 99.308594 "/>
</g>
<path style="fill:none;stroke-width:1.001;stroke-linecap:butt;stroke-linejoin:miter;stroke:rgb(10.594177%,9.812927%,9.423828%);stroke-opacity:1;stroke-miterlimit:4;" d="M 1.367188 1.445313 L 5041.367188 1.445313 L 5041.367188 2979.648438 L 1.367188 2979.648438 Z M 1.367188 1.445313 " transform="matrix(0.1,0,0,-0.1,0,298)"/>
<path style=" stroke:none;fill-rule:evenodd;fill:rgb(6.272888%,16.479492%,51.367188%);fill-opacity:1;" d="M 255.292969 148.539063 C 255.066406 146.796875 253.472656 145.566406 251.730469 145.792969 C 249.988281 146.015625 248.757813 147.609375 248.984375 149.351563 C 249.207031 151.09375 250.800781 152.324219 252.542969 152.097656 C 254.285156 151.875 255.515625 150.28125 255.292969 148.539063 Z M 255.292969 148.539063 "/>
<path style=" stroke:none;fill-rule:evenodd;fill:rgb(6.272888%,16.479492%,51.367188%);fill-opacity:1;" d="M 296.046875 143.289063 C 292.921875 119.042969 270.730469 101.914063 246.484375 105.039063 C 222.234375 108.160156 205.105469 130.351563 208.230469 154.597656 C 211.351563 178.851563 233.542969 195.976563 257.792969 192.851563 C 282.042969 189.726563 299.167969 167.539063 296.046875 143.289063 Z M 290.542969 156.515625 C 289.058594 156.316406 287.691406 157.359375 287.492188 158.839844 C 287.316406 160.144531 288.101563 161.355469 289.300781 161.765625 C 289.050781 162.488281 288.78125 163.199219 288.488281 163.902344 C 286.996094 163.25 280.304688 160.3125 276.484375 158.324219 C 272.222656 156.109375 267.605469 153.253906 258.402344 151.027344 C 258.296875 151.339844 258.171875 151.644531 258.023438 151.933594 C 266.078125 156.917969 271.351563 158.191406 275.925781 159.664063 C 280.027344 160.980469 286.820313 163.675781 288.332031 164.277344 C 288.046875 164.949219 287.746094 165.613281 287.421875 166.269531 C 287.375 166.246094 287.324219 166.21875 287.273438 166.199219 C 285.890625 165.621094 284.304688 166.273438 283.726563 167.65625 C 283.222656 168.867188 283.660156 170.234375 284.710938 170.945313 C 284.28125 171.574219 283.835938 172.191406 283.375 172.796875 C 282.089844 171.773438 276.398438 167.210938 273.226563 164.308594 C 269.683594 161.0625 265.964844 157.109375 257.644531 152.578125 C 257.464844 152.851563 257.265625 153.109375 257.046875 153.355469 C 263.539063 160.253906 268.304688 162.847656 272.34375 165.453125 C 275.957031 167.785156 281.808594 172.136719 283.125 173.117188 C 282.675781 173.695313 282.214844 174.257813 281.734375 174.808594 C 281.691406 174.773438 281.652344 174.738281 281.609375 174.703125 C 280.425781 173.789063 278.722656 174.007813 277.808594 175.191406 C 277.003906 176.234375 277.078125 177.671875 277.910156 178.628906 C 277.335938 179.125 276.742188 179.609375 276.140625 180.074219 C 275.171875 178.765625 270.847656 172.875 268.53125 169.242188 C 265.949219 165.191406 263.382813 160.410156 256.519531 153.878906 C 256.277344 154.097656 256.015625 154.296875 255.738281 154.476563 C 260.222656 162.820313 264.15625 166.558594 267.382813 170.121094 C 270.269531 173.3125 274.808594 179.039063 275.816406 180.320313 C 275.234375 180.757813 274.640625 181.1875 274.035156 181.59375 C 274.003906 181.546875 273.972656 181.5 273.9375 181.453125 C 273.03125 180.261719 271.332031 180.035156 270.140625 180.941406 C 269.09375 181.742188 268.789063 183.152344 269.351563 184.292969 C 268.667969 184.625 267.972656 184.9375 267.269531 185.230469 C 266.675781 183.722656 264.019531 176.90625 262.71875 172.792969 C 261.273438 168.210938 260.03125 162.929688 255.09375 154.847656 C 254.804688 154.992188 254.5 155.117188 254.183594 155.21875 C 256.355469 164.4375 259.1875 169.070313 261.382813 173.34375 C 263.347656 177.179688 266.25 183.894531 266.890625 185.382813 C 266.214844 185.65625 265.53125 185.914063 264.839844 186.148438 C 264.820313 186.097656 264.804688 186.042969 264.78125 185.988281 C 264.214844 184.605469 262.628906 183.941406 261.246094 184.511719 C 260.03125 185.011719 259.371094 186.289063 259.613281 187.53125 C 258.871094 187.675781 258.117188 187.796875 257.359375 187.898438 C 257.175781 186.265625 256.375 179.015625 256.1875 174.71875 C 255.976563 169.917969 256.144531 164.496094 253.464844 155.410156 C 253.304688 155.441406 253.144531 155.46875 252.980469 155.492188 C 252.816406 155.511719 252.652344 155.523438 252.492188 155.535156 C 252.203125 165 253.738281 170.207031 254.75 174.90625 C 255.65625 179.109375 256.71875 186.324219 256.957031 187.953125 C 256.226563 188.042969 255.5 188.109375 254.777344 188.160156 C 254.773438 188.105469 254.769531 188.054688 254.765625 188 C 254.570313 186.515625 253.214844 185.464844 251.730469 185.65625 C 250.425781 185.824219 249.457031 186.894531 249.371094 188.160156 C 248.609375 188.105469 247.851563 188.03125 247.097656 187.933594 C 247.339844 186.324219 248.449219 179.097656 249.378906 174.890625 C 250.417969 170.199219 251.980469 165 251.746094 155.53125 C 251.414063 155.515625 251.089844 155.46875 250.773438 155.402344 C 248.046875 164.472656 248.179688 169.898438 247.941406 174.695313 C 247.730469 179 246.886719 186.261719 246.695313 187.878906 C 245.96875 187.777344 245.25 187.660156 244.535156 187.519531 C 244.546875 187.460938 244.558594 187.40625 244.566406 187.347656 C 244.765625 185.863281 243.726563 184.5 242.242188 184.300781 C 240.9375 184.125 239.726563 184.910156 239.316406 186.109375 C 238.59375 185.859375 237.882813 185.585938 237.179688 185.296875 C 237.832031 183.804688 240.769531 177.113281 242.757813 173.292969 C 244.972656 169.03125 247.832031 164.414063 250.054688 155.210938 C 249.742188 155.105469 249.441406 154.976563 249.148438 154.828125 C 244.167969 162.882813 242.890625 168.160156 241.421875 172.734375 C 240.101563 176.832031 237.410156 183.625 236.804688 185.136719 C 236.132813 184.851563 235.46875 184.550781 234.8125 184.230469 C 234.835938 184.179688 234.863281 184.132813 234.886719 184.082031 C 235.460938 182.699219 234.808594 181.109375 233.429688 180.535156 C 232.214844 180.027344 230.847656 180.46875 230.136719 181.515625 C 229.507813 181.089844 228.890625 180.644531 228.285156 180.183594 C 229.308594 178.898438 233.871094 173.207031 236.777344 170.035156 C 240.019531 166.492188 243.972656 162.773438 248.503906 154.453125 C 248.230469 154.273438 247.972656 154.074219 247.726563 153.855469 C 240.832031 160.34375 238.234375 165.113281 235.628906 169.148438 C 233.296875 172.761719 228.945313 178.617188 227.964844 179.933594 C 227.386719 179.484375 226.824219 179.019531 226.273438 178.539063 C 226.308594 178.5 226.347656 178.460938 226.378906 178.417969 C 227.292969 177.230469 227.074219 175.53125 225.890625 174.613281 C 224.847656 173.8125 223.410156 173.882813 222.453125 174.714844 C 221.957031 174.140625 221.472656 173.550781 221.007813 172.949219 C 222.316406 171.984375 228.207031 167.65625 231.839844 165.339844 C 235.890625 162.757813 240.671875 160.1875 247.203125 153.328125 C 246.984375 153.082031 246.785156 152.824219 246.605469 152.546875 C 238.265625 157.03125 234.523438 160.964844 230.960938 164.1875 C 227.769531 167.078125 222.039063 171.617188 220.761719 172.625 C 220.324219 172.042969 219.894531 171.449219 219.488281 170.84375 C 219.535156 170.8125 219.582031 170.78125 219.628906 170.746094 C 220.820313 169.839844 221.046875 168.136719 220.140625 166.945313 C 219.339844 165.898438 217.929688 165.597656 216.789063 166.160156 C 216.457031 165.476563 216.144531 164.78125 215.851563 164.074219 C 217.355469 163.484375 224.175781 160.828125 228.289063 159.527344 C 232.871094 158.082031 238.152344 156.839844 246.238281 151.902344 C 246.089844 151.609375 245.964844 151.308594 245.863281 150.992188 C 236.644531 153.164063 232.011719 155.996094 227.738281 158.1875 C 223.902344 160.15625 217.183594 163.058594 215.699219 163.699219 C 215.425781 163.023438 215.167969 162.339844 214.933594 161.648438 C 214.984375 161.628906 215.039063 161.613281 215.09375 161.589844 C 216.480469 161.019531 217.140625 159.4375 216.570313 158.050781 C 216.070313 156.835938 214.792969 156.179688 213.550781 156.421875 C 213.40625 155.675781 213.285156 154.925781 213.183594 154.167969 C 214.8125 153.984375 222.066406 153.183594 226.363281 152.996094 C 231.164063 152.785156 236.589844 152.949219 245.675781 150.273438 C 245.640625 150.113281 245.613281 149.953125 245.59375 149.789063 C 245.570313 149.625 245.558594 149.460938 245.550781 149.296875 C 236.082031 149.011719 230.875 150.546875 226.179688 151.558594 C 221.972656 152.464844 214.753906 153.527344 213.128906 153.765625 C 213.039063 153.035156 212.96875 152.308594 212.921875 151.582031 C 212.976563 151.578125 213.027344 151.578125 213.082031 151.570313 C 214.566406 151.378906 215.617188 150.019531 215.425781 148.535156 C 215.257813 147.230469 214.1875 146.265625 212.921875 146.179688 C 212.976563 145.414063 213.050781 144.65625 213.148438 143.90625 C 214.757813 144.148438 221.988281 145.253906 226.191406 146.1875 C 230.882813 147.222656 236.082031 148.789063 245.550781 148.554688 C 245.570313 148.222656 245.613281 147.898438 245.679688 147.582031 C 236.609375 144.851563 231.183594 144.988281 226.386719 144.75 C 222.082031 144.535156 214.820313 143.695313 213.203125 143.503906 C 213.304688 142.777344 213.421875 142.054688 213.5625 141.339844 C 213.621094 141.351563 213.675781 141.367188 213.734375 141.375 C 215.21875 141.574219 216.582031 140.53125 216.78125 139.046875 C 216.957031 137.746094 216.175781 136.53125 214.976563 136.125 C 215.222656 135.402344 215.496094 134.691406 215.785156 133.988281 C 217.277344 134.640625 223.96875 137.578125 227.792969 139.566406 C 232.054688 141.78125 236.667969 144.636719 245.875 146.863281 C 245.976563 146.550781 246.105469 146.246094 246.253906 145.957031 C 238.199219 140.972656 232.921875 139.699219 228.347656 138.226563 C 224.25 136.910156 217.457031 134.21875 215.945313 133.613281 C 216.230469 132.941406 216.53125 132.273438 216.851563 131.621094 C 216.902344 131.644531 216.949219 131.671875 217.003906 131.691406 C 218.382813 132.269531 219.972656 131.617188 220.546875 130.234375 C 221.054688 129.023438 220.613281 127.652344 219.566406 126.945313 C 219.992188 126.316406 220.4375 125.699219 220.902344 125.09375 C 222.183594 126.117188 227.875 130.679688 231.046875 133.582031 C 234.59375 136.828125 238.3125 140.78125 246.628906 145.3125 C 246.808594 145.039063 247.011719 144.78125 247.230469 144.535156 C 240.738281 137.636719 235.96875 135.042969 231.933594 132.4375 C 228.320313 130.105469 222.464844 125.753906 221.152344 124.773438 C 221.597656 124.195313 222.0625 123.632813 222.542969 123.082031 C 222.582031 123.117188 222.621094 123.152344 222.664063 123.1875 C 223.851563 124.101563 225.550781 123.882813 226.46875 122.695313 C 227.269531 121.65625 227.199219 120.21875 226.367188 119.261719 C 226.941406 118.761719 227.53125 118.28125 228.136719 117.816406 C 229.101563 119.125 233.425781 125.015625 235.742188 128.648438 C 238.324219 132.699219 240.894531 137.480469 247.753906 144.011719 C 248 143.792969 248.261719 143.59375 248.535156 143.414063 C 244.050781 135.070313 240.121094 131.332031 236.894531 127.769531 C 234.003906 124.578125 229.46875 118.847656 228.457031 117.570313 C 229.039063 117.128906 229.632813 116.703125 230.238281 116.296875 C 230.273438 116.34375 230.300781 116.390625 230.335938 116.4375 C 231.242188 117.625 232.945313 117.855469 234.136719 116.945313 C 235.183594 116.148438 235.484375 114.734375 234.921875 113.597656 C 235.605469 113.265625 236.300781 112.953125 237.007813 112.660156 C 237.597656 114.164063 240.257813 120.984375 241.554688 125.097656 C 243 129.679688 244.246094 134.960938 249.183594 143.042969 C 249.472656 142.898438 249.777344 142.773438 250.089844 142.671875 C 247.917969 133.453125 245.089844 128.820313 242.894531 124.546875 C 240.925781 120.710938 238.023438 113.996094 237.382813 112.507813 C 238.058594 112.234375 238.742188 111.976563 239.4375 111.738281 C 239.453125 111.792969 239.472656 111.847656 239.492188 111.902344 C 240.0625 113.285156 241.644531 113.945313 243.03125 113.378906 C 244.246094 112.878906 244.902344 111.597656 244.660156 110.359375 C 245.40625 110.214844 246.15625 110.09375 246.914063 109.988281 C 247.097656 111.621094 247.898438 118.875 248.085938 123.171875 C 248.300781 127.96875 248.132813 133.394531 250.808594 142.480469 C 250.96875 142.449219 251.128906 142.421875 251.292969 142.398438 C 251.457031 142.378906 251.621094 142.367188 251.785156 142.355469 C 252.070313 132.886719 250.535156 127.683594 249.523438 122.984375 C 248.617188 118.78125 247.554688 111.5625 247.320313 109.9375 C 248.046875 109.847656 248.773438 109.777344 249.5 109.730469 C 249.503906 109.78125 249.503906 109.835938 249.511719 109.890625 C 249.703125 111.375 251.0625 112.421875 252.546875 112.234375 C 253.851563 112.066406 254.816406 110.996094 254.902344 109.730469 C 255.667969 109.785156 256.425781 109.859375 257.175781 109.957031 C 256.933594 111.566406 255.828125 118.792969 254.898438 123 C 253.859375 127.691406 252.292969 132.886719 252.527344 142.359375 C 252.859375 142.375 253.183594 142.421875 253.503906 142.488281 C 256.230469 133.417969 256.09375 127.992188 256.332031 123.191406 C 256.546875 118.890625 257.390625 111.625 257.582031 110.011719 C 258.304688 110.113281 259.027344 110.230469 259.742188 110.371094 C 259.730469 110.429688 259.714844 110.484375 259.707031 110.542969 C 259.507813 112.027344 260.550781 113.390625 262.035156 113.589844 C 263.335938 113.765625 264.550781 112.980469 264.960938 111.78125 C 265.679688 112.03125 266.390625 112.304688 267.09375 112.59375 C 266.445313 114.085938 263.503906 120.777344 261.519531 124.597656 C 259.300781 128.859375 256.445313 133.476563 254.222656 142.679688 C 254.53125 142.785156 254.835938 142.914063 255.125 143.0625 C 260.109375 135.007813 261.382813 129.730469 262.855469 125.15625 C 264.175781 121.058594 266.867188 114.265625 267.46875 112.75 C 268.140625 113.039063 268.808594 113.339844 269.460938 113.660156 C 269.4375 113.710938 269.410156 113.757813 269.390625 113.808594 C 268.8125 115.191406 269.464844 116.777344 270.847656 117.355469 C 272.058594 117.859375 273.429688 117.421875 274.136719 116.375 C 274.765625 116.800781 275.382813 117.246094 275.988281 117.707031 C 274.964844 118.992188 270.40625 124.683594 267.5 127.855469 C 264.253906 131.398438 260.300781 135.117188 255.769531 143.4375 C 256.042969 143.617188 256.300781 143.816406 256.546875 144.035156 C 263.445313 137.542969 266.042969 132.777344 268.648438 128.742188 C 270.980469 125.128906 275.328125 119.273438 276.3125 117.957031 C 276.886719 118.40625 277.453125 118.871094 278 119.347656 C 277.964844 119.390625 277.929688 119.429688 277.894531 119.472656 C 276.980469 120.65625 277.199219 122.359375 278.386719 123.273438 C 279.425781 124.078125 280.863281 124.007813 281.820313 123.175781 C 282.320313 123.75 282.800781 124.339844 283.265625 124.941406 C 281.957031 125.910156 276.066406 130.234375 272.433594 132.550781 C 268.382813 135.132813 263.601563 137.703125 257.074219 144.5625 C 257.289063 144.808594 257.488281 145.066406 257.667969 145.34375 C 266.011719 140.859375 269.753906 136.925781 273.3125 133.703125 C 276.507813 130.8125 282.234375 126.273438 283.511719 125.265625 C 283.953125 125.847656 284.378906 126.441406 284.785156 127.046875 C 284.738281 127.078125 284.691406 127.109375 284.648438 127.144531 C 283.457031 128.050781 283.226563 129.753906 284.136719 130.941406 C 284.933594 131.988281 286.347656 132.292969 287.484375 131.730469 C 287.816406 132.414063 288.128906 133.109375 288.421875 133.816406 C 286.917969 134.40625 280.097656 137.0625 275.988281 138.363281 C 271.40625 139.808594 266.121094 141.050781 258.039063 145.988281 C 258.183594 146.28125 258.308594 146.582031 258.410156 146.898438 C 267.628906 144.726563 272.261719 141.894531 276.535156 139.703125 C 280.375 137.734375 287.089844 134.828125 288.578125 134.191406 C 288.847656 134.867188 289.105469 135.550781 289.34375 136.242188 C 289.289063 136.261719 289.234375 136.277344 289.183594 136.300781 C 287.796875 136.871094 287.136719 138.453125 287.703125 139.835938 C 288.203125 141.050781 289.484375 141.710938 290.726563 141.46875 C 290.867188 142.210938 290.992188 142.964844 291.09375 143.722656 C 289.460938 143.90625 282.207031 144.707031 277.914063 144.894531 C 273.113281 145.105469 267.6875 144.941406 258.601563 147.617188 C 258.632813 147.777344 258.664063 147.9375 258.683594 148.101563 C 258.703125 148.265625 258.71875 148.429688 258.726563 148.589844 C 268.195313 148.878906 273.402344 147.34375 278.097656 146.332031 C 282.300781 145.425781 289.519531 144.363281 291.144531 144.125 C 291.234375 144.855469 291.304688 145.582031 291.355469 146.304688 C 291.300781 146.308594 291.246094 146.3125 291.191406 146.320313 C 289.707031 146.511719 288.660156 147.867188 288.847656 149.351563 C 289.019531 150.65625 290.085938 151.625 291.351563 151.710938 C 291.300781 152.472656 291.222656 153.230469 291.125 153.984375 C 289.519531 153.742188 282.289063 152.636719 278.082031 151.703125 C 273.390625 150.664063 268.195313 149.101563 258.726563 149.335938 C 258.707031 149.667969 258.664063 149.992188 258.59375 150.308594 C 267.664063 153.039063 273.089844 152.902344 277.890625 153.140625 C 282.191406 153.355469 289.457031 154.195313 291.070313 154.386719 C 290.96875 155.113281 290.851563 155.832031 290.710938 156.546875 C 290.65625 156.535156 290.597656 156.523438 290.542969 156.515625 Z M 290.542969 156.515625 "/>
</g>
</svg>
